<svg xmlns="http://www.w3.org/2000/svg" viewBox="0 0 720 400" role="img" aria-labelledby="t">
  <title id="t">įŹ◊ŪłßĮ»KČÝMķW~gnAĆāűů	</title>
  <defs>
    <linearGradient id="g" x1="0%" y1="0%" x2="100%" y2="100%">
      <stop offset="0%" stop-color="#1a1d24"/>
      <stop offset="100%" stop-color="#12141a"/>
    </linearGradient>
  </defs>
  <rect width="720" height="400" fill="#0b0c10"/>
  <text x="360" y="36" fill="#9aa3b2" font-family="system-ui,sans-serif" font-size="14" text-anchor="middle">ķ,nAĆĻřŘPChākSng2Ā~Y	</text>
  <!-- Step 1 -->
  <rect x="40" y="70" width="180" height="260" rx="12" fill="url(#g)" stroke="#2a3140"/>
  <text x="130" y="100" fill="#e8ecf4" font-family="system-ui,sans-serif" font-size="13" font-weight="600" text-anchor="middle">` įŹ◊ŪłßĮ»</text>
  <rect x="60" y="120" width="140" height="80" rx="6" fill="#252a35"/>
  <text x="130" y="165" fill="#8b95a8" font-family="system-ui,sans-serif" font-size="11" text-anchor="middle">  Píxě</text>
  <rect x="60" y="220" width="140" height="90" rx="6" fill="#1e2430"/>
  <text x="130" y="255" fill="#6b7280" font-family="system-ui,sans-serif" font-size="10" text-anchor="middle">Ņ§ŗť§ůx</text>
  <!-- Arrow -->
  <path d="M 235 200 L 275 200" stroke="#3fe0b3" stroke-width="3" fill="none"/>
  <path d="M 268 192 L 285 200 L 268 208 Z" fill="#3fe0b3"/>
  <!-- Step 2 -->
  <rect x="300" y="70" width="180" height="260" rx="12" fill="url(#g)" stroke="#2a3140"/>
  <text x="390" y="100" fill="#e8ecf4" font-family="system-ui,sans-serif" font-size="13" font-weight="600" text-anchor="middle">a Ť∆rŻJd	</text>
  <rect x="320" y="130" width="140" height="36" rx="4" fill="#2d3545"/>
  <rect x="330" y="138" width="40" height="20" rx="3" fill="#3b82f6"/>
  <rect x="380" y="138" width="40" height="20" rx="3" fill="#3b82f6"/>
  <line x1="360" y1="190" x2="360" y2="280" stroke="#f59e0b" stroke-width="2"/>
  <text x="390" y="210" fill="#9aa3b2" font-family="system-ui,sans-serif" font-size="10">ćō√…</text>
  <rect x="320" y="290" width="140" height="28" rx="4" fill="#252a35"/>
  <text x="390" y="308" fill="#8b95a8" font-family="system-ui,sans-serif" font-size="10" text-anchor="middle">rŻJd</text>
  <!-- Arrow -->
  <path d="M 495 200 L 535 200" stroke="#3fe0b3" stroke-width="3" fill="none"/>
  <path d="M 528 192 L 545 200 L 528 208 Z" fill="#3fe0b3"/>
  <!-- Step 3 -->
  <rect x="560" y="70" width="120" height="260" rx="12" fill="url(#g)" stroke="#2a3140"/>
  <text x="620" y="100" fill="#e8ecf4" font-family="system-ui,sans-serif" font-size="13" font-weight="600" text-anchor="middle">b ÝMķW</text>
  <rect x="575" y="130" width="90" height="44" rx="8" fill="#3fe0b3" fill-opacity="0.2" stroke="#3fe0b3"/>
  <text x="620" y="158" fill="#3fe0b3" font-family="system-ui,sans-serif" font-size="12" font-weight="600" text-anchor="middle">®ĮĻ›Ł»</text>
  <text x="620" y="210" fill="#8b95a8" font-family="system-ui,sans-serif" font-size="10" text-anchor="middle">„Ō¶Żfps</text>
  <text x="620" y="230" fill="#8b95a8" font-family="system-ui,sans-serif" font-size="10" text-anchor="middle">b MP4</text>
  <text x="360" y="378" fill="#5c6573" font-family="system-ui,sans-serif" font-size="11" text-anchor="middle">; ‹ŅůŻroĘ√◊«Ł»g	ŹčShLBä~Y</text>
</svg>
