<svg xmlns="http://www.w3.org/2000/svg" viewBox="0 0 720 400" role="img" aria-labelledby="t">
  <title id="t">≠Ł’žŁŗrWb	g—ťŠŁŅí	āűů	</title>
  <rect width="720" height="400" fill="#0b0c10"/>
  <text x="360" y="34" fill="#9aa3b2" font-family="system-ui,sans-serif" font-size="14" text-anchor="middle">≠Ł’žŁŗčňhBÜgMnŻĻĪŁŽŻř‚jií	Hč</text>
  <rect x="48" y="60" width="624" height="56" rx="8" fill="#141821" stroke="#2a3140"/>
  <polygon points="80,88 88,76 96,88 88,100" fill="#f59e0b"/>
  <text x="110" y="92" fill="#f59e0b" font-family="system-ui,sans-serif" font-size="11" font-weight="600">≠Ł’žŁŗ</text>
  <text x="220" y="92" fill="#6b7280" font-family="system-ui,sans-serif" font-size="11">Mn</text>
  <text x="290" y="92" fill="#6b7280" font-family="system-ui,sans-serif" font-size="11">ĻĪŁŽ</text>
  <text x="370" y="92" fill="#6b7280" font-family="system-ui,sans-serif" font-size="11">ř‚</text>
  <!-- timeline -->
  <rect x="48" y="140" width="624" height="100" rx="8" fill="#0f1218" stroke="#2a3140"/>
  <rect x="120" y="168" width="480" height="36" rx="4" fill="#2563eb" fill-opacity="0.5"/>
  <polygon points="200,178 208,166 216,178 208,190" fill="#f59e0b"/>
  <polygon points="400,178 408,166 416,178 408,190" fill="#f59e0b"/>
  <polygon points="520,178 528,166 536,178 528,190" fill="#f59e0b"/>
  <line x1="208" y1="178" x2="408" y2="178" stroke="#f59e0b" stroke-width="2" stroke-dasharray="4 3"/>
  <text x="360" y="220" fill="#9aa3b2" font-family="system-ui,sans-serif" font-size="11" text-anchor="middle">ćō√…í’KW$í	HfrWbíŅ√◊≠Ł’žŁŗż†</text>
  <!-- graph -->
  <rect x="180" y="250" width="360" height="100" rx="8" fill="#141821" stroke="#2a3140"/>
  <text x="360" y="278" fill="#8b95a8" font-family="system-ui,sans-serif" font-size="11" text-anchor="middle">ĻĪŁŽč100% í 120%</text>
  <polyline points="220,320 280,300 340,285 400,275 460,268" stroke="#3fe0b3" stroke-width="2" fill="none"/>
  <text x="360" y="378" fill="#5c6573" font-family="system-ui,sans-serif" font-size="11" text-anchor="middle">; PC o—ťŠŁŅ*nņ§š«	g≠Ł’žŁŗíSa~Y</text>
</svg>
