<svg xmlns="http://www.w3.org/2000/svg" viewBox="0 0 720 400" role="img" aria-labelledby="t">
  <title id="t">ŐŁëżühżt‚őó	</title>
  <rect width="720" height="400" fill="#0b0c10"/>
  <text x="360" y="34" fill="#9aa3b2" font-family="system-ui,sans-serif" font-size="14" text-anchor="middle">ŐŁëżügđň ’ żtg‹UűłóČéąČ’Ő
R</text>
  <rect x="48" y="58" width="624" height="44" rx="8" fill="#141821" stroke="#2a3140"/>
  <rect x="70" y="68" width="72" height="28" rx="6" fill="#3fe0b3" fill-opacity="0.2" stroke="#3fe0b3"/>
  <text x="106" y="86" fill="#3fe0b3" font-family="system-ui,sans-serif" font-size="11" font-weight="600" text-anchor="middle">ŐŁëżü</text>
  <text x="180" y="86" fill="#6b7280" font-family="system-ui,sans-serif" font-size="11">żt</text>
  <text x="250" y="86" fill="#6b7280" font-family="system-ui,sans-serif" font-size="11">¨Ő§ŻČ</text>
  <!-- thumbnails -->
  <rect x="80" y="130" width="100" height="70" rx="6" fill="#4a5568"/>
  <rect x="200" y="130" width="100" height="70" rx="6" fill="#7c2d12"/>
  <rect x="320" y="130" width="100" height="70" rx="6" fill="#1e3a5f"/>
  <rect x="440" y="130" width="100" height="70" rx="6" fill="#14532d"/>
  <rect x="560" y="130" width="100" height="70" rx="6" fill="#3fe0b3" fill-opacity="0.3" stroke="#3fe0b3"/>
  <text x="610" y="168" fill="#3fe0b3" font-family="system-ui,sans-serif" font-size="10" text-anchor="middle">xž-</text>
  <!-- intensity -->
  <text x="80" y="240" fill="#9aa3b2" font-family="system-ui,sans-serif" font-size="12">7¦</text>
  <rect x="130" y="228" width="400" height="14" rx="4" fill="#374151"/>
  <rect x="130" y="228" width="160" height="14" rx="4" fill="#a78bfa"/>
  <text x="550" y="240" fill="#e8ecf4" font-family="system-ui,sans-serif" font-size="11">40%</text>
  <text x="360" y="290" fill="#9aa3b2" font-family="system-ui,sans-serif" font-size="12" text-anchor="middle">100%n~~`hę6kjŠ„YD ’ 3050%MŚK‰fY</text>
  <text x="360" y="378" fill="#5c6573" font-family="system-ui,sans-serif" font-size="11" text-anchor="middle">; ąż¤ëjiŐŁëżüřSnMnĐü¸çóîBŠ</text>
</svg>
